<?xml version="1.0" standalone="no"?>
<!DOCTYPE svg PUBLIC "-//W3C//DTD SVG 20010904//EN"
 "http://www.w3.org/TR/2001/REC-SVG-20010904/DTD/svg10.dtd">
<svg version="1.0" xmlns="http://www.w3.org/2000/svg"
 width="561.000000pt" height="561.000000pt" viewBox="0 0 561.000000 561.000000"
 preserveAspectRatio="xMidYMid meet">
<metadata>
Created by potrace 1.14, written by Peter Selinger 2001-2017
</metadata>
<g transform="translate(0.000000,561.000000) scale(0.100000,-0.100000)"
fill="#000000" stroke="none">
<path d="M2640 5582 c-82 -28 -138 -59 -189 -107 -116 -108 -135 -273 -46
-390 14 -17 25 -36 25 -41 0 -5 -29 -17 -64 -26 -239 -63 -425 -238 -581 -547
-80 -159 -121 -280 -140 -418 -3 -21 -8 -48 -10 -60 -7 -31 -7 -192 0 -228 3
-16 11 -48 18 -70 16 -56 16 -55 -20 -70 -27 -11 -34 -11 -43 0 -6 8 -34 19
-62 24 -44 10 -52 9 -64 -6 -22 -29 -16 -41 21 -45 24 -3 35 0 35 9 0 17 11
16 35 -1 18 -13 17 -14 -8 -42 -15 -16 -30 -37 -33 -46 -3 -10 -12 -18 -19
-18 -8 0 -12 6 -9 14 5 14 -41 50 -54 42 -10 -6 -3 -76 7 -74 3 1 16 -1 28 -6
22 -7 22 -10 22 -199 0 -106 3 -203 7 -217 3 -14 7 -66 8 -117 1 -75 4 -96 19
-110 18 -17 19 -17 38 6 10 13 19 36 19 52 0 19 5 29 15 29 11 0 15 -13 16
-50 1 -27 2 -53 3 -57 1 -5 6 -33 10 -63 4 -30 19 -100 33 -155 19 -74 25
-122 23 -185 -1 -47 -2 -98 -2 -115 0 -44 11 -121 29 -190 8 -33 17 -70 19
-82 6 -33 54 -162 75 -205 11 -21 45 -65 77 -99 31 -34 65 -74 75 -89 l18 -28
-53 -12 c-386 -90 -718 -342 -936 -710 -63 -107 -130 -302 -157 -463 -15 -83
-27 -374 -17 -404 3 -9 451 -12 2003 -12 l2000 0 -2 157 c-1 172 -16 291 -54
423 -116 408 -416 752 -801 922 -90 39 -235 87 -265 87 -38 0 -16 39 76 135
59 61 104 155 144 301 42 155 45 173 46 334 2 118 7 164 28 250 14 58 29 132
33 165 4 33 8 69 10 80 1 11 3 34 4 50 2 26 3 23 11 -14 5 -25 15 -52 24 -60
13 -14 17 -13 33 2 13 14 18 38 20 115 11 386 14 468 18 472 3 2 8 -1 13 -8 5
-8 14 -3 30 18 24 33 18 40 -33 44 -17 1 -30 14 -48 48 l-25 47 26 9 c31 11
84 -4 62 -17 -9 -6 -5 -14 19 -31 35 -25 40 -24 43 16 2 23 -4 32 -33 47 -46
24 -90 28 -117 11 -19 -12 -28 -11 -71 12 l-50 26 15 46 c26 83 25 278 -2 427
-36 198 -72 308 -146 444 -64 119 -180 257 -248 295 -9 5 -18 13 -21 16 -20
29 -242 131 -358 166 -10 3 -6 13 11 36 46 62 62 109 62 183 0 107 -42 180
-151 264 -18 14 -69 39 -115 57 -69 26 -288 29 -359 6z m-1085 -2642 c7 -32
-1 -70 -15 -70 -10 0 -18 55 -12 86 6 30 19 23 27 -16z m2540 -22 c-4 -42 -10
-56 -22 -45 -11 12 -12 81 0 95 16 19 25 -3 22 -50z"/>
</g>
</svg>
